<svg xmlns="http://www.w3.org/2000/svg" width="1200" height="470" viewBox="0 0 1200 470" font-family="Inter, 'Helvetica Neue', Arial, sans-serif">
<defs><linearGradient id="padspan" x1="0" y1="0" x2="1" y2="0"><stop offset="0" stop-color="#52b788"/><stop offset="0.5" stop-color="#5eead4"/><stop offset="1" stop-color="#f59e0b"/></linearGradient><marker id="aTxt" viewBox="0 0 10 10" refX="8.5" refY="5" markerWidth="6.5" markerHeight="6.5" orient="auto-start-reverse"><path d="M0,1 L9,5 L0,9 z" fill="#e2e8f0"/></marker><marker id="aGrn" viewBox="0 0 10 10" refX="8.5" refY="5" markerWidth="6.5" markerHeight="6.5" orient="auto-start-reverse"><path d="M0,1 L9,5 L0,9 z" fill="#52b788"/></marker><marker id="aTeal" viewBox="0 0 10 10" refX="8.5" refY="5" markerWidth="6.5" markerHeight="6.5" orient="auto-start-reverse"><path d="M0,1 L9,5 L0,9 z" fill="#5eead4"/></marker><marker id="aAmb" viewBox="0 0 10 10" refX="8.5" refY="5" markerWidth="6.5" markerHeight="6.5" orient="auto-start-reverse"><path d="M0,1 L9,5 L0,9 z" fill="#f59e0b"/></marker><marker id="aRed" viewBox="0 0 10 10" refX="8.5" refY="5" markerWidth="6.5" markerHeight="6.5" orient="auto-start-reverse"><path d="M0,1 L9,5 L0,9 z" fill="#f87171"/></marker><marker id="aMut" viewBox="0 0 10 10" refX="8.5" refY="5" markerWidth="6.5" markerHeight="6.5" orient="auto-start-reverse"><path d="M0,1 L9,5 L0,9 z" fill="#94a3b8"/></marker></defs>
<rect width="1200" height="470" fill="#0a150e"/><rect x="0.5" y="0.5" width="1199" height="469" fill="none" stroke="#1b3526" stroke-width="1"/>
<text x="56" y="52" font-family="Inter, 'Helvetica Neue', Arial, sans-serif" font-size="10.5" font-weight="600" fill="#5eead4" text-anchor="start" letter-spacing="2.2">PRESENCE HONESTY</text>
<text x="56" y="86" font-family="Inter, 'Helvetica Neue', Arial, sans-serif" font-size="26" font-weight="700" fill="#e2e8f0" text-anchor="start">The presence lifecycle, with a real away state</text>
<text x="56" y="112" font-family="Inter, 'Helvetica Neue', Arial, sans-serif" font-size="12.5" font-weight="400" fill="#94a3b8" text-anchor="start">A device that stops advertising becomes visibly away, not a stale dot claiming confident room presence.</text>
<rect x="56" y="126" width="220" height="3" rx="1.5" fill="url(#padspan)"/>
<rect x="60" y="178" width="228" height="176" rx="8" ry="8" fill="#142c1f" stroke="#52b788" stroke-width="1.3"/>
<circle cx="96" cy="220" r="13" fill="none" stroke="#52b788" stroke-width="1.2" opacity="0.45"/><circle cx="96" cy="220" r="9" fill="#52b788" stroke="#071008" stroke-width="1.6" opacity="1.0"/><rect x="82.9" y="193" width="26.2" height="14" rx="7" ry="7" fill="#0c1a0e" stroke="#52b788" stroke-width="1"/><text x="96" y="203.5" font-family="Inter, 'Helvetica Neue', Arial, sans-serif" font-size="9" font-weight="700" fill="#52b788" text-anchor="middle">94%</text>
<rect x="122.0" y="224.0" width="3.5" height="4.0" rx="1" fill="#52b788"/><rect x="127.7" y="220.8" width="3.5" height="7.2" rx="1" fill="#52b788"/><rect x="133.4" y="217.6" width="3.5" height="10.4" rx="1" fill="#52b788"/><rect x="139.1" y="214.4" width="3.5" height="13.6" rx="1" fill="#52b788"/>
<text x="272" y="208" font-family="Inter, 'Helvetica Neue', Arial, sans-serif" font-size="11.5" font-weight="700" fill="#52b788" text-anchor="end" letter-spacing="0.8">LIVE</text>
<line x1="76" y1="246" x2="272" y2="246" stroke="#234e39" stroke-width="1"/>
<text x="76" y="270" font-family="Inter, 'Helvetica Neue', Arial, sans-serif" font-size="10.5" font-weight="400" fill="#cbd5e1" text-anchor="start">fresh adverts every poll</text>
<text x="76" y="288" font-family="Inter, 'Helvetica Neue', Arial, sans-serif" font-size="10.5" font-weight="400" fill="#cbd5e1" text-anchor="start">Kalman + k-NN + WLS each tick</text>
<text x="76" y="306" font-family="Inter, 'Helvetica Neue', Arial, sans-serif" font-size="10.5" font-weight="400" fill="#cbd5e1" text-anchor="start">dot colored by confidence</text>
<line x1="294" y1="266.0" x2="338" y2="266.0" stroke="#f59e0b" stroke-width="1.5" marker-end="url(#aAmb)"/>
<rect x="344" y="178" width="228" height="176" rx="8" ry="8" fill="#26250e" stroke="#f59e0b" stroke-width="1.3"/>
<circle cx="380" cy="220" r="13" fill="none" stroke="#f59e0b" stroke-width="1.2" opacity="0.34"/><circle cx="380" cy="220" r="9" fill="#f59e0b" stroke="#071008" stroke-width="1.6" opacity="0.75"/>
<rect x="406.0" y="224.0" width="3.5" height="4.0" rx="1" fill="#f59e0b"/><rect x="411.7" y="220.8" width="3.5" height="7.2" rx="1" fill="#263130"/><rect x="417.4" y="217.6" width="3.5" height="10.4" rx="1" fill="#263130"/><rect x="423.1" y="214.4" width="3.5" height="13.6" rx="1" fill="#263130"/>
<text x="556" y="208" font-family="Inter, 'Helvetica Neue', Arial, sans-serif" font-size="11.5" font-weight="700" fill="#f59e0b" text-anchor="end" letter-spacing="0.8">SILENCE</text>
<line x1="360" y1="246" x2="556" y2="246" stroke="#5c450d" stroke-width="1"/>
<text x="360" y="270" font-family="Inter, 'Helvetica Neue', Arial, sans-serif" font-size="10.5" font-weight="400" fill="#cbd5e1" text-anchor="start">adverts stop arriving</text>
<text x="360" y="288" font-family="Inter, 'Helvetica Neue', Arial, sans-serif" font-size="10.5" font-weight="400" fill="#cbd5e1" text-anchor="start">last room held for the grace</text>
<text x="360" y="306" font-family="Inter, 'Helvetica Neue', Arial, sans-serif" font-size="10.5" font-weight="400" fill="#cbd5e1" text-anchor="start">window · recency fade on map</text>
<line x1="578" y1="266.0" x2="622" y2="266.0" stroke="#94a3b8" stroke-width="1.5" marker-end="url(#aMut)"/>
<rect x="628" y="178" width="228" height="176" rx="8" ry="8" fill="#18231f" stroke="#94a3b8" stroke-width="1.3"/>
<circle cx="664" cy="220" r="9" fill="#94a3b8" stroke="#071008" stroke-width="1.6" opacity="0.55"/><rect x="648.2" y="193" width="31.599999999999998" height="14" rx="7" ry="7" fill="#0c1a0e" stroke="#94a3b8" stroke-width="1"/><text x="664" y="203.5" font-family="Inter, 'Helvetica Neue', Arial, sans-serif" font-size="9" font-weight="700" fill="#94a3b8" text-anchor="middle">away</text>
<rect x="690.0" y="224.0" width="3.5" height="4.0" rx="1" fill="#263130"/><rect x="695.7" y="220.8" width="3.5" height="7.2" rx="1" fill="#263130"/><rect x="701.4" y="217.6" width="3.5" height="10.4" rx="1" fill="#263130"/><rect x="707.1" y="214.4" width="3.5" height="13.6" rx="1" fill="#263130"/>
<text x="840" y="208" font-family="Inter, 'Helvetica Neue', Arial, sans-serif" font-size="11.5" font-weight="700" fill="#94a3b8" text-anchor="end" letter-spacing="0.8">AWAY (NO SIGNAL)</text>
<line x1="644" y1="246" x2="840" y2="246" stroke="#3a474a" stroke-width="1"/>
<text x="644" y="270" font-family="Inter, 'Helvetica Neue', Arial, sans-serif" font-size="10.5" font-weight="400" fill="#cbd5e1" text-anchor="start">after away_timeout (5 min)</text>
<text x="644" y="288" font-family="Inter, 'Helvetica Neue', Arial, sans-serif" font-size="10.5" font-weight="400" fill="#cbd5e1" text-anchor="start">grey dot + away badge on</text>
<text x="644" y="306" font-family="Inter, 'Helvetica Neue', Arial, sans-serif" font-size="10.5" font-weight="400" fill="#cbd5e1" text-anchor="start">both maps · no ghost rooms</text>
<line x1="862" y1="266.0" x2="906" y2="266.0" stroke="#5eead4" stroke-width="1.5" marker-end="url(#aTeal)"/>
<rect x="912" y="178" width="228" height="176" rx="8" ry="8" fill="#122a22" stroke="#5eead4" stroke-width="1.3"/>
<circle cx="948" cy="220" r="9" fill="#5eead4" stroke="#071008" stroke-width="1.6" opacity="0.8"/>
<text x="970" y="224" font-family="ui-monospace, Menlo, Consolas, monospace" font-size="10" font-weight="600" fill="#5eead4" text-anchor="start">_stale</text>
<text x="1124" y="208" font-family="Inter, 'Helvetica Neue', Arial, sans-serif" font-size="11.5" font-weight="700" fill="#5eead4" text-anchor="end" letter-spacing="0.8">RESURRECTION</text>
<line x1="928" y1="246" x2="1124" y2="246" stroke="#276053" stroke-width="1"/>
<text x="928" y="270" font-family="Inter, 'Helvetica Neue', Arial, sans-serif" font-size="10.5" font-weight="400" fill="#cbd5e1" text-anchor="start">seen again from history cache</text>
<text x="928" y="288" font-family="Inter, 'Helvetica Neue', Arial, sans-serif" font-size="10.5" font-weight="400" fill="#cbd5e1" text-anchor="start">returns marked _stale: skips</text>
<text x="928" y="306" font-family="Inter, 'Helvetica Neue', Arial, sans-serif" font-size="10.5" font-weight="400" fill="#cbd5e1" text-anchor="start">the pipeline until fresh signal</text>
<rect x="275.98" y="244.0" width="80.04" height="14" rx="3" ry="3" fill="#0a150e"/>
<text x="316.0" y="254.0" font-family="Inter, 'Helvetica Neue', Arial, sans-serif" font-size="9" font-weight="400" fill="#94a3b8" text-anchor="middle">silence begins</text>
<rect x="562.41" y="244.0" width="75.18" height="14" rx="3" ry="3" fill="#0a150e"/>
<text x="600.0" y="254.0" font-family="Inter, 'Helvetica Neue', Arial, sans-serif" font-size="9" font-weight="400" fill="#94a3b8" text-anchor="middle">grace expires</text>
<rect x="843.98" y="244.0" width="80.04" height="14" rx="3" ry="3" fill="#0a150e"/>
<text x="884.0" y="254.0" font-family="Inter, 'Helvetica Neue', Arial, sans-serif" font-size="9" font-weight="400" fill="#94a3b8" text-anchor="middle">adverts resume</text>
<path d="M1026.0,360 V388 H174.0 V364" fill="none" stroke="#52b788" stroke-width="1.5" marker-end="url(#aGrn)"/>
<text x="600.0" y="380" font-family="Inter, 'Helvetica Neue', Arial, sans-serif" font-size="10" font-weight="600" fill="#52b788" text-anchor="middle">fresh signal · full pipeline again · re-entry vote reset works</text>
<text x="56" y="446" font-family="Inter, 'Helvetica Neue', Arial, sans-serif" font-size="11" font-weight="400" fill="#94a3b8" text-anchor="start">Fork behavior: explicit no-signal detection on both maps, and resurrection that costs nothing until the device is really back.</text>
<rect x="1104.8" y="433" width="39.2" height="15" rx="3" ry="3" fill="#f59e0b"/><text x="1124.3999999999999" y="444.5" font-family="Inter, 'Helvetica Neue', Arial, sans-serif" font-size="9" font-weight="700" fill="#071008" text-anchor="middle" letter-spacing="1.2">FORK</text>
</svg>
